<?xml version="1.0" standalone="no"?>
<!DOCTYPE svg PUBLIC "-//W3C//DTD SVG 20010904//EN"
 "http://www.w3.org/TR/2001/REC-SVG-20010904/DTD/svg10.dtd">
<svg version="1.0" xmlns="http://www.w3.org/2000/svg"
 width="1412.000000pt" height="856.000000pt" viewBox="0 0 1412.000000 856.000000"
 preserveAspectRatio="xMidYMid meet">

<g transform="translate(0.000000,856.000000) scale(0.100000,-0.100000)"
fill="#000000" stroke="none">
<path d="M5455 5474 c-227 -48 -363 -179 -875 -839 -436 -561 -593 -753 -623
-760 -26 -6 -293 11 -387 25 -63 9 -232 28 -430 49 -52 6 -120 15 -150 21 -30
5 -95 15 -145 20 -129 15 -267 36 -368 54 -66 13 -92 14 -108 5 -32 -16 -12
-27 71 -39 41 -6 100 -17 131 -25 31 -8 108 -24 170 -35 63 -11 152 -27 199
-35 47 -9 143 -25 214 -35 71 -11 144 -24 162 -30 44 -15 151 -28 316 -40 204
-14 248 -24 248 -59 0 -10 -24 -51 -53 -91 -65 -91 -294 -385 -366 -471 -160
-191 -407 -433 -582 -570 -282 -220 -625 -394 -947 -481 -112 -30 -126 -31
-312 -32 -215 -1 -223 1 -443 76 -225 77 -141 -8 103 -105 263 -105 551 -142
783 -102 364 64 726 219 1012 434 198 149 435 374 582 551 313 380 405 497
519 668 42 61 81 113 87 113 33 4 524 -3 540 -7 37 -11 38 -36 6 -221 -40
-233 -47 -290 -60 -523 -16 -294 -4 -383 70 -504 50 -82 105 -110 210 -109 85
1 145 23 238 86 118 80 291 257 475 488 166 208 413 598 483 764 39 91 54 100
136 81 59 -14 106 -46 95 -65 -2 -3 -40 -68 -85 -144 -89 -148 -148 -275 -211
-451 -58 -163 -74 -300 -50 -426 27 -140 142 -175 274 -84 82 56 300 239 490
409 56 50 126 110 156 135 30 25 121 107 202 183 81 75 152 137 157 137 5 0
14 -7 21 -15 13 -16 8 -58 -17 -160 -11 -40 -16 -109 -16 -210 0 -163 12 -216
67 -304 80 -126 266 -166 419 -89 48 24 121 75 212 149 72 58 252 240 281 284
20 30 49 32 64 5 6 -11 15 -53 20 -94 17 -132 29 -166 79 -216 59 -59 109 -74
233 -68 75 3 103 9 143 30 65 34 174 112 250 178 86 75 328 313 406 398 37 39
74 72 82 72 29 0 35 -30 21 -92 -8 -32 -17 -97 -20 -143 -9 -113 6 -165 65
-226 41 -41 55 -49 121 -64 123 -27 209 -3 325 92 99 81 336 358 468 547 66
95 92 126 105 126 18 0 30 -47 22 -86 -4 -21 -20 -95 -34 -164 -15 -69 -33
-161 -41 -205 -20 -106 -68 -283 -88 -321 -9 -17 -49 -57 -89 -89 -40 -32 -93
-75 -118 -95 -64 -52 -320 -223 -490 -328 -80 -49 -206 -126 -280 -172 -348
-214 -582 -437 -645 -615 -27 -75 -32 -230 -10 -308 53 -187 206 -288 439
-287 227 1 417 86 661 293 224 190 406 473 584 905 53 131 196 563 231 701 30
119 48 149 145 238 121 110 525 540 525 558 0 27 -38 15 -88 -27 -27 -24 -126
-122 -221 -219 -94 -97 -186 -184 -204 -192 -31 -16 -32 -15 -45 9 -11 21 -11
35 1 82 58 227 149 486 223 634 30 59 54 113 54 119 0 9 -23 10 -82 5 -211
-16 -303 -82 -496 -356 -227 -321 -431 -563 -587 -696 -97 -83 -122 -89 -150
-33 -19 35 -19 99 0 214 21 135 67 264 172 485 111 233 128 327 74 411 -32 51
-114 107 -168 116 -32 6 -33 5 -33 -30 0 -108 -161 -418 -316 -608 -147 -180
-519 -542 -698 -677 -137 -104 -200 -122 -230 -64 -68 131 6 460 185 822 80
161 92 192 93 239 0 50 -2 56 -40 91 -45 41 -138 81 -199 83 l-39 2 -8 -57
c-4 -32 -14 -70 -22 -85 -7 -16 -35 -82 -60 -148 -65 -171 -150 -342 -229
-464 -56 -87 -103 -140 -260 -296 -188 -186 -315 -288 -396 -316 -46 -16 -87
4 -114 55 -48 90 -17 359 72 631 56 172 283 697 317 736 22 25 79 45 194 69
58 12 132 30 165 40 33 10 76 22 95 25 83 16 277 78 306 99 31 23 7 31 -54 17
-31 -7 -75 -17 -97 -22 -52 -11 -165 -37 -235 -54 -30 -7 -97 -25 -149 -40
-103 -30 -143 -27 -149 11 -2 11 27 79 64 150 132 254 174 339 174 361 0 34
-33 46 -104 38 -102 -11 -211 -98 -259 -207 -13 -29 -49 -95 -80 -147 -32 -52
-57 -101 -57 -110 0 -9 -21 -44 -46 -78 -42 -56 -53 -65 -138 -102 -51 -23
-110 -47 -132 -55 -51 -18 -136 -68 -141 -83 -3 -7 40 4 94 24 121 43 145 48
172 34 28 -16 27 -54 -3 -94 -29 -39 -86 -151 -86 -170 0 -8 -13 -40 -30 -73
-23 -47 -76 -106 -267 -295 -346 -344 -591 -563 -751 -672 -61 -42 -80 -39
-108 15 -48 93 50 391 194 590 165 229 174 318 39 381 -41 20 -74 26 -161 31
-121 7 -158 21 -188 71 -17 30 -17 30 26 95 73 109 95 209 56 245 -43 39 -171
28 -227 -19 -61 -51 -97 -175 -79 -269 3 -19 27 -67 53 -107 45 -70 46 -73 33
-109 -42 -116 -350 -614 -479 -772 -25 -31 -68 -85 -95 -119 -75 -94 -292
-311 -365 -364 -118 -86 -131 -64 -131 221 0 255 30 503 95 798 8 39 20 101
25 138 11 76 31 121 59 136 10 6 58 14 107 19 108 12 144 24 144 52 0 16 -7
20 -37 20 -20 0 -63 -5 -94 -12 -45 -9 -64 -9 -85 1 -25 11 -26 15 -21 59 3
26 26 133 51 237 121 499 172 672 259 875 85 198 107 266 107 325 0 49 -16 68
-79 90 -52 18 -75 18 -166 -1z m-287 -601 c2 -12 -8 -50 -21 -85 -24 -65 -92
-277 -100 -313 -3 -11 -21 -76 -41 -145 -49 -169 -63 -222 -82 -310 -19 -91
-42 -148 -63 -159 -9 -5 -113 -12 -232 -16 -227 -7 -259 -3 -259 34 0 21 51
101 147 232 38 52 99 137 135 189 211 303 458 602 493 597 12 -1 21 -11 23
-24z m5316 -2197 c6 -25 -17 -101 -63 -206 -163 -367 -241 -523 -351 -700
-108 -173 -261 -356 -360 -431 -86 -64 -201 -124 -271 -139 -54 -12 -58 -12
-110 16 -41 22 -62 42 -86 84 -30 50 -33 61 -33 140 0 74 4 95 33 161 49 111
127 217 262 358 160 165 355 325 610 499 157 108 208 144 270 194 67 54 90 59
99 24z"/>
<path d="M9150 4721 c-74 -11 -152 -35 -200 -62 l-40 -23 0 -66 c0 -37 7 -88
16 -114 20 -58 82 -126 115 -126 41 0 224 206 288 325 18 33 19 42 7 53 -17
17 -112 23 -186 13z"/>
<path d="M7880 1611 c-64 -13 -130 -51 -147 -84 -22 -43 -21 -158 2 -195 40
-62 68 -82 164 -113 123 -40 149 -54 157 -83 9 -39 -5 -65 -46 -86 -69 -35
-137 -20 -179 39 -25 34 -52 46 -87 37 -30 -8 -31 -33 -4 -86 25 -48 64 -77
127 -91 113 -26 236 20 273 104 24 52 26 146 5 187 -20 38 -92 75 -176 90 -73
13 -136 49 -145 84 -10 40 20 84 67 97 35 11 45 10 84 -9 24 -12 52 -34 61
-49 24 -38 44 -53 70 -53 39 0 49 25 36 87 -12 60 -31 87 -75 109 -33 18 -138
26 -187 15z"/>
<path d="M5803 1600 l-23 -9 0 -288 c0 -158 3 -298 6 -311 6 -20 12 -23 48
-20 l41 3 5 92 c3 52 10 97 17 104 7 7 49 18 93 25 147 23 208 73 231 185 13
62 2 120 -32 162 -32 42 -130 67 -258 66 -58 0 -116 -4 -128 -9z m269 -116
c21 -6 58 -65 58 -93 0 -32 -50 -81 -95 -93 -127 -33 -155 -17 -155 85 0 94
30 121 120 112 30 -4 63 -8 72 -11z"/>
<path d="M6766 1601 c-3 -4 -5 -142 -5 -305 1 -277 2 -297 19 -306 28 -15 57
-12 64 6 3 9 6 50 6 93 0 47 5 83 13 93 8 11 36 17 92 21 130 8 189 41 231
132 26 55 30 98 13 156 -27 89 -103 119 -301 119 -70 0 -129 -4 -132 -9z m281
-111 c18 -10 39 -31 49 -45 14 -21 14 -30 4 -55 -17 -41 -30 -49 -112 -71 -91
-23 -94 -23 -118 1 -16 16 -20 33 -20 85 0 88 17 105 103 105 44 0 71 -6 94
-20z"/>
<path d="M4984 1543 c-21 -52 -104 -240 -182 -412 -69 -154 -70 -164 -8 -159
26 3 34 12 61 67 18 35 40 70 50 77 22 17 176 19 205 4 10 -6 33 -38 51 -71
32 -60 56 -79 101 -79 19 0 20 4 13 47 -8 56 -48 167 -103 284 -22 48 -50 117
-62 155 -36 108 -46 124 -81 124 -25 0 -32 -6 -45 -37z m83 -221 c22 -62 22
-63 3 -82 -36 -36 -120 -20 -120 23 0 12 11 46 25 75 20 44 29 53 47 50 18 -2
28 -17 45 -66z"/>
</g>
</svg>
